{"title":"Yeh Jawaani Hai Deewani - DVDScr - x264 -BEST AVAILABLE  - PT","uid":8663507,"size":1153718421,"categoryP":"video","categoryS":"movies","magnet":"?xt=urn:btih:a20f893b1c6ca80336d2dad7173a2b9db51b07da&amp;dn=Yeh+Jawaani+Hai+Deewani+-+DVDScr+-+x264+-BEST+AVAILABLE++-+PT&amp;tr=udp%3A%2F%2Ftracker.openbittorrent.com%3A80&amp;tr=udp%3A%2F%2Fopen.demonii.com%3A1337&amp;tr=udp%3A%2F%2Ftracker.coppersurfer.tk%3A6969&amp;tr=udp%3A%2F%2Fexodus.desync.com%3A6969","seeders":0,"leechers":1,"uploader":"DrSeeder","files":-1,"time":1373359345,"description":"Complete name                    : Yeh Jawaani Hai Deewani - DVDScr - x264 -BEST AVAILABLE  - PTYeh Jawaani Hai Deewani - DVDScr - x264 - AC3 - PT.mp4\nFormat                           : MPEG-4\nFormat profile                   : Base Media\nCodec ID                         : isom\nFile size                        : 1.07 GiB\nDuration                         : 2h 36mn\nOverall bit rate                 : 986 Kbps\nEncoded date                     : UTC 2013-06-01 06:48:46\nTagged date                      : UTC 2013-06-01 06:48:46\n\nVideo\nID                               : 1\nFormat                           : AVC\nFormat/Info                      : Advanced Video Codec\nFormat profile                   : &lt;a class=&quot;__cf_email__&quot; href=&quot;/cdn-cgi/l/email-protection&quot; data-cfemail=&quot;eea6878986aea2dac0df&quot;&gt;[email&amp;#160;protected]&lt;/a&gt;&lt;script cf-hash='f9e31' type=&quot;text/javascript&quot;&gt;\n/* &lt;![CDATA[ */!function(){try{var t=&quot;currentScript&quot;in document?document.currentScript:function(){for(var t=document.getElementsByTagName(&quot;script&quot;),e=t.length;e--;)if(t[e].getAttribute(&quot;cf-hash&quot;))return t[e]}();if(t&amp;&amp;t.previousSibling){var e,r,n,i,c=t.previousSibling,a=c.getAttribute(&quot;data-cfemail&quot;);if(a){for(e=&quot;&quot;,r=parseInt(a.substr(0,2),16),n=2;a.length-n;n+=2)i=parseInt(a.substr(n,2),16)^r,e+=String.fromCharCode(i);e=document.createTextNode(e),c.parentNode.replaceChild(e,c)}}}catch(u){}}();/* ]]&gt; */&lt;/script&gt;\nFormat settings, CABAC           : Yes\nFormat settings, ReFrames        : 4 frames\nCodec ID                         : avc1\nCodec ID/Info                    : Advanced Video Coding\nDuration                         : 1h 15mn\nBit rate                         : 889 Kbps\nMaximum bit rate                 : 2 974 Kbps\nWidth                            : 832 pixels\nHeight                           : 320 pixels\nDisplay aspect ratio             : 2.600\nFrame rate mode                  : Constant\nFrame rate                       : 25.000 fps\nColor space                      : YUV\nChroma subsampling               : 4:2:0\nBit depth                        : 8 bits\nScan type                        : Progressive\nBits/(Pixel*Frame)               : 0.134\nStream size                      : 480 MiB (44%)\nEncoded date                     : UTC 2013-06-02 00:43:41\nTagged date                      : UTC 2013-06-01 06:49:16\nMaterial_Duration                : 9365440\nMaterial_StreamSize              : 1000910305\nMaterial_FrameCount              : 234136\nColor primaries                  : BT.470-6 System B, BT.470-6 System G, BT.601-6 625, BT.1358 625, BT.1700 625 PAL, BT.1700 625 SECAM\nTransfer characteristics         : BT.470-6 System B, BT.470-6 System G\nMatrix coefficients              : BT.470-6 System B, BT.470-6 System G, BT.601-6 625, BT.1358 625, BT.1700 625 PAL, BT.1700 625 SECAM, IEC 61966-2-4 601\n\nAudio\nID                               : 2\nFormat                           : AC-3\nFormat/Info                      : Audio Coding 3\nMode extension                   : CM (complete main)\nCodec ID                         : ac-3\nDuration                         : 2h 36mn\nBit rate mode                    : Constant\nBit rate                         : 128 Kbps\nChannel(s)                       : 2 channels\nChannel positions                : Front: L R\nSampling rate                    : 48.0 KHz\nBit depth                        : 16 bits\nCompression mode                 : Lossy\nStream size                      : 143 MiB (13%)\nEncoded date                     : UTC 2013-06-01 06:28:48\nTagged date                      : UTC 2013-06-01 06:49:16\n","torrent":{"xt":"urn:btih:a20f893b1c6ca80336d2dad7173a2b9db51b07da","amp;dn":"Yeh+Jawaani+Hai+Deewani+-+DVDScr+-+x264+-BEST+AVAILABLE++-+PT","amp;tr":["udp%3A%2F%2Ftracker.openbittorrent.com%3A80","udp%3A%2F%2Fopen.demonii.com%3A1337","udp%3A%2F%2Ftracker.coppersurfer.tk%3A6969","udp%3A%2F%2Fexodus.desync.com%3A6969"],"infoHash":"a20f893b1c6ca80336d2dad7173a2b9db51b07da","infoHashBuffer":{"type":"Buffer","data":[162,15,137,59,28,108,168,3,54,210,218,215,23,58,43,157,181,27,7,218]},"announce":[],"urlList":[]}}